<?xml version="1.0" standalone="no"?>
<!DOCTYPE svg PUBLIC "-//W3C//DTD SVG 20010904//EN"
 "http://www.w3.org/TR/2001/REC-SVG-20010904/DTD/svg10.dtd">
<svg version="1.0" xmlns="http://www.w3.org/2000/svg"
 width="896.000000pt" height="896.000000pt" viewBox="0 0 896.000000 896.000000"
 preserveAspectRatio="xMidYMid meet">
<metadata>
Created by potrace 1.14, written by Peter Selinger 2001-2017
</metadata>
<g transform="translate(0.000000,896.000000) scale(0.100000,-0.100000)"
fill="#000000" stroke="none">
<path d="M0 6939 l0 -2021 176 171 c312 303 525 448 824 560 103 38 332 90
470 105 77 9 237 35 285 46 22 5 81 19 130 30 106 25 247 66 290 85 17 8 50
20 75 29 46 15 142 53 195 77 17 7 55 30 85 50 87 57 136 79 179 79 56 0 145
-35 178 -71 15 -16 34 -29 40 -29 7 0 51 19 97 42 47 23 88 39 91 36 4 -3 -1
-18 -11 -33 -31 -48 -4 -221 102 -632 82 -324 128 -456 231 -673 25 -52 52
-113 61 -135 9 -22 35 -77 58 -122 23 -46 40 -83 38 -83 -1 0 -24 28 -51 62
-65 86 -79 98 -108 98 -20 0 -30 -10 -51 -51 -36 -73 -89 -212 -114 -305 -27
-101 -33 -112 -53 -92 -9 8 -20 33 -26 55 -6 23 -51 121 -100 219 -154 308
-224 465 -261 589 -55 181 -134 555 -155 734 -17 144 -31 120 118 208 53 32
97 60 97 63 0 3 -20 17 -44 33 -51 32 -131 37 -171 11 -50 -33 -65 -73 -75
-205 -5 -68 -10 -141 -10 -161 0 -48 -22 -50 -69 -8 l-33 31 -62 -20 c-33 -11
-104 -30 -157 -42 l-97 -22 -6 -51 c-16 -134 -3 -319 45 -661 22 -160 35 -352
19 -295 -5 19 -19 98 -30 175 -11 77 -26 183 -34 235 -26 171 -38 372 -33 560
2 102 7 196 11 210 5 19 2 17 -8 -6 -9 -18 -20 -71 -26 -120 -6 -48 -13 -91
-15 -94 -11 -17 -76 -19 -189 -5 -122 15 -194 12 -321 -15 -61 -13 -135 -39
-155 -56 -8 -6 -25 -15 -38 -19 -21 -6 -22 -9 -9 -23 20 -24 10 -43 -18 -36
-17 4 -26 0 -34 -14 -6 -11 -37 -35 -68 -53 -32 -18 -65 -38 -73 -44 -8 -7
-31 -15 -50 -19 -37 -7 -97 -67 -155 -153 -24 -37 -33 -43 -64 -44 -30 0 -24
-3 35 -19 134 -35 261 -109 380 -222 67 -64 163 -192 152 -204 -3 -2 -24 20
-47 49 -102 134 -218 220 -367 274 -83 30 -116 36 -204 41 -66 3 -127 0 -165
-8 -88 -19 -97 -21 -135 -24 -42 -4 -131 -37 -183 -69 -47 -29 -157 -136 -202
-197 -41 -56 -112 -185 -148 -269 l-28 -65 34 -49 c49 -70 347 -367 442 -441
126 -97 162 -121 305 -199 30 -17 67 -38 82 -49 14 -10 32 -18 40 -19 7 0 2
-5 -12 -10 -26 -11 -122 -3 -149 12 -9 4 -61 29 -116 54 -55 25 -102 49 -105
54 -3 4 -63 43 -134 87 -152 93 -224 160 -287 270 -25 43 -59 102 -75 129
l-29 50 -3 -2059 c-1 -1133 0 -2061 2 -2063 4 -5 280 19 441 38 114 13 145 12
145 -5 0 -22 -8 -24 -116 -36 -54 -6 -133 -16 -174 -23 -68 -12 -50 -13 190
-10 155 2 280 8 302 15 66 19 154 5 249 -41 48 -23 105 -57 127 -76 l40 -35
1672 0 c1077 0 1669 3 1665 10 -3 5 -53 41 -111 79 -72 49 -128 78 -182 95
l-77 24 91 1 c90 1 92 0 153 -39 34 -22 66 -40 71 -40 6 0 10 -4 10 -10 0 -5
6 -10 13 -10 7 0 23 -9 35 -20 12 -11 26 -20 32 -20 5 0 10 -4 10 -10 0 -5 5
-10 10 -10 6 0 23 -11 38 -25 l27 -25 1072 0 c590 0 1073 2 1073 4 0 5 -39 27
-315 174 -340 182 -779 422 -839 460 -46 29 -42 33 59 56 135 32 161 39 219
57 33 11 80 19 105 19 25 0 72 4 104 10 l58 9 52 -42 c108 -88 506 -325 817
-487 252 -131 313 -165 369 -203 48 -33 48 -33 211 3 398 88 575 118 1143 192
161 21 167 22 167 44 0 20 -4 23 -27 19 -16 -3 -122 -19 -238 -36 -301 -43
-791 -124 -997 -166 l-178 -35 -37 19 c-205 108 -303 163 -396 227 -104 71
-221 138 -457 261 -124 65 -260 137 -302 161 -42 23 -79 39 -82 36 -3 -3 -6 7
-6 21 0 27 1 27 68 27 90 0 273 15 597 51 377 41 343 44 451 -47 49 -41 114
-90 144 -108 146 -88 201 -124 278 -179 46 -33 143 -96 215 -139 159 -94 160
-94 412 -43 94 20 229 47 300 60 72 14 146 30 166 35 20 6 48 10 63 10 l26 0
0 125 c0 87 -3 125 -11 125 -7 0 -70 -16 -140 -36 -71 -19 -144 -36 -164 -37
-19 -1 -35 -4 -35 -7 0 -3 -17 -5 -38 -5 -21 -1 -55 -9 -75 -18 -20 -10 -69
-26 -109 -37 -40 -11 -83 -22 -94 -25 -13 -4 -25 -2 -30 6 -5 9 -2 10 11 6 9
-4 23 -3 29 2 6 5 22 11 36 13 14 3 -5 5 -42 5 -37 0 -65 -3 -62 -8 8 -13 -10
-11 -41 5 -17 9 -22 16 -15 21 7 4 16 3 22 -3 6 -6 54 2 138 24 70 18 139 30
152 27 18 -4 20 -3 8 6 -12 9 -9 11 15 13 17 1 41 1 55 1 14 -1 19 1 11 4 -16
7 310 92 352 93 26 0 27 2 27 54 l0 55 -87 -24 c-49 -13 -209 -65 -358 -115
-148 -49 -282 -90 -298 -90 -28 0 -160 61 -172 80 -11 18 6 11 84 -31 l75 -42
56 19 c30 10 62 21 70 25 8 4 49 17 90 30 70 21 108 39 83 39 -13 0 -217 -63
-258 -80 -28 -12 -38 -9 -145 48 -63 33 -201 95 -306 136 -106 41 -245 102
-310 136 -336 171 -478 251 -465 260 9 5 0 75 -14 110 -4 13 9 18 67 29 113
19 300 48 443 66 283 37 585 89 617 106 26 13 33 12 73 -15 46 -32 163 -80
283 -117 150 -47 193 -52 295 -33 49 9 109 14 133 11 l44 -5 0 50 c0 48 -1 50
-22 43 -13 -4 -55 -14 -94 -23 -66 -15 -74 -15 -116 1 -45 18 -108 70 -108 91
0 7 3 6 8 -2 5 -7 26 -23 48 -34 33 -19 53 -22 129 -20 50 1 104 5 120 10 l30
8 3 247 c1 136 -1 247 -6 247 -4 0 -48 -26 -97 -59 -100 -65 -181 -143 -219
-211 -33 -58 -33 -44 0 21 14 28 44 70 68 93 42 43 162 128 224 160 l32 17 0
215 c0 200 -1 215 -17 210 -36 -10 -374 -47 -386 -43 -6 3 -1 6 13 8 19 1 15
4 -15 10 -28 5 -19 6 32 3 40 -3 78 -2 85 2 6 4 23 8 37 10 14 1 55 5 91 8 36
3 86 8 113 12 l47 6 0 1234 0 1234 -64 0 c-36 0 -67 4 -70 8 -2 4 -2 26 1 47
l5 40 64 -2 64 -2 0 1950 0 1949 -4480 0 -4480 0 0 -2021z m8887 1875 c-3 -3
-12 -4 -19 -1 -8 3 -5 6 6 6 11 1 17 -2 13 -5z m50 -27 c3 -4 -15 -7 -40 -7
-26 0 -47 -4 -47 -10 0 -5 -10 -10 -22 -10 -19 0 -20 2 -8 10 8 5 11 10 5 11
-16 2 58 14 82 13 13 0 26 -4 30 -7z m-287 -17 c0 -5 5 -10 11 -10 5 0 7 5 4
10 -4 7 6 10 29 8 20 -1 36 -6 36 -10 0 -4 12 -8 26 -8 16 0 24 -5 21 -12 -2
-7 -14 -12 -27 -10 -15 3 -20 0 -15 -8 6 -9 2 -9 -14 -1 -17 10 -22 9 -27 -4
-6 -14 -9 -14 -31 0 -22 15 -27 15 -56 0 -20 -10 -33 -12 -35 -5 -2 5 -9 7
-14 4 -12 -8 -34 -12 -111 -21 -40 -5 -46 -3 -42 10 4 9 14 13 26 10 10 -3 19
0 19 6 0 6 15 11 33 11 19 0 37 3 41 7 4 4 22 6 41 5 20 -2 38 3 46 12 16 17
39 21 39 6z m-566 -90 c18 14 31 8 23 -12 -5 -15 -177 -23 -177 -9 0 12 37 20
47 10 4 -4 19 -2 33 5 17 8 30 9 42 2 11 -7 21 -6 32 4z m76 -5 c-12 -15 -30
-12 -30 6 0 5 10 9 21 9 18 0 19 -2 9 -15z m50 11 c0 -11 -19 -15 -25 -6 -3 5
1 10 9 10 9 0 16 -2 16 -4z m-315 -16 c-3 -5 -12 -10 -18 -10 -7 0 -6 4 3 10
19 12 23 12 15 0z m-70 -519 c3 -5 1 -12 -5 -16 -5 -3 -10 1 -10 9 0 18 6 21
15 7z m-3095 -426 c51 -21 116 -63 174 -112 43 -36 54 -37 36 -3 -14 26 -6 36
35 45 28 5 28 5 6 -5 -43 -19 -18 -18 74 2 75 16 116 18 245 14 167 -5 170 9
5 20 -78 6 -152 0 -265 -22 -14 -2 -7 3 15 12 64 27 315 25 420 -3 105 -27
275 -94 333 -130 26 -15 69 -39 95 -53 62 -32 238 -212 306 -314 75 -110 156
-269 184 -362 54 -172 57 -312 11 -454 -43 -130 -174 -334 -198 -309 -3 3 8
25 24 49 17 25 30 49 30 53 0 5 -22 -7 -49 -27 -47 -35 -119 -71 -127 -64 -2
2 14 14 35 28 43 26 78 75 61 85 -6 3 -13 0 -16 -8 -3 -9 -27 -25 -54 -36 -31
-14 -51 -29 -55 -43 -4 -13 -37 -90 -75 -173 -37 -82 -86 -194 -110 -248 -23
-54 -55 -117 -71 -140 -16 -23 -29 -45 -29 -49 0 -12 -34 -44 -53 -51 -17 -6
-21 -3 -59 47 -12 15 -35 34 -52 42 -20 8 -24 13 -13 14 25 0 68 -24 97 -54
l24 -27 18 33 c21 41 23 54 3 38 -11 -9 -20 -8 -43 8 -16 12 -53 23 -90 28
-53 6 -59 8 -46 21 7 8 14 18 14 22 0 14 -65 5 -91 -12 -26 -17 -28 -17 -60 2
-19 12 -51 21 -72 21 -35 0 -38 2 -31 23 15 46 24 93 24 128 0 34 3 38 44 53
44 17 166 132 166 156 0 7 -16 -8 -36 -32 -48 -58 -65 -73 -103 -92 l-31 -17
5 32 c3 18 8 37 12 43 3 6 -6 -2 -19 -18 l-24 -28 -17 26 c-12 17 -15 35 -11
52 5 19 4 25 -5 20 -6 -4 -11 -2 -11 5 0 10 -3 10 -11 2 -8 -8 -8 -17 1 -34 8
-16 -1 -11 -27 16 -21 22 -34 42 -30 44 5 1 15 -5 22 -15 14 -18 14 -18 15 5
0 28 -37 98 -57 105 -10 4 -10 -1 3 -25 8 -17 14 -33 11 -35 -7 -8 -36 42 -58
101 -11 30 -23 55 -26 55 -5 0 2 -35 13 -64 3 -9 2 -16 -4 -16 -5 0 -12 9 -15
21 -3 12 -10 18 -15 15 -11 -6 -26 23 -17 32 3 3 5 -1 5 -8 0 -7 3 -11 6 -8
11 12 -16 46 -40 50 -26 5 -44 -16 -24 -28 7 -4 8 -3 4 4 -4 7 -3 12 2 12 5 0
14 -12 21 -27 9 -23 9 -25 -1 -13 -15 17 -106 16 -123 -2 -7 -7 0 -8 22 -3 38
8 77 -10 69 -31 -3 -9 -1 -12 4 -9 6 3 10 1 10 -5 0 -6 5 -8 10 -5 8 5 7 12
-2 23 -10 12 -7 12 15 -2 32 -21 33 -24 10 -22 -13 1 -17 -5 -16 -21 2 -16 -2
-21 -12 -17 -8 4 -15 10 -15 15 0 5 -11 2 -25 -7 -20 -13 -23 -19 -14 -31 7
-7 10 -15 8 -16 -2 -1 -11 -8 -20 -15 -22 -16 -73 9 -116 57 -18 20 -33 31
-33 24 0 -6 23 -32 51 -57 55 -49 56 -55 6 -30 -17 10 -39 18 -47 19 -40 5
-80 30 -114 71 -45 53 -56 52 -27 -2 12 -21 21 -46 21 -54 0 -9 5 -21 12 -28
8 -8 8 -12 1 -12 -20 0 -111 96 -168 180 -32 47 -86 119 -118 160 -33 41 -55
76 -49 78 6 2 49 -28 96 -65 47 -37 124 -88 172 -113 48 -25 103 -60 122 -78
19 -18 37 -30 39 -28 15 14 -37 58 -180 155 -142 96 -251 183 -207 167 10 -4
24 7 40 30 13 20 49 53 78 73 55 36 58 55 4 27 -27 -14 -31 -14 -42 0 -7 8
-11 16 -9 17 2 2 21 17 42 35 38 32 38 33 10 26 -24 -6 -96 -30 -178 -59 -20
-7 -20 -6 -1 9 26 21 15 29 -20 15 -27 -10 -74 -19 -74 -14 0 10 52 55 64 55
24 0 96 31 96 42 0 5 4 7 9 4 12 -8 41 4 41 16 0 18 -72 2 -141 -29 -35 -16
-77 -33 -92 -37 -28 -7 -28 -7 -11 17 11 14 49 34 96 51 43 15 78 32 78 36 0
5 -7 7 -15 4 -10 -4 -15 0 -15 14 0 22 -22 44 -42 41 -7 -1 -24 -1 -38 0 -21
2 -19 4 15 16 22 8 48 15 58 15 9 0 17 4 17 8 0 5 -33 4 -72 0 -87 -10 -298
-6 -298 5 0 5 -4 6 -9 3 -5 -4 -24 6 -41 20 -23 20 -28 29 -18 35 9 6 7 8 -7
7 -11 -1 -38 2 -60 5 l-40 7 39 -20 c61 -31 83 -56 132 -154 25 -49 58 -105
74 -123 41 -46 46 -73 21 -119 -17 -30 -20 -49 -15 -82 4 -29 2 -48 -7 -60
-13 -15 -12 -16 4 -3 9 7 17 18 17 24 0 5 12 21 28 35 15 14 37 45 49 70 l21
44 84 -113 c86 -117 115 -161 209 -312 29 -49 67 -102 83 -118 16 -16 27 -32
23 -35 -3 -3 -34 1 -69 10 -57 14 -72 14 -134 2 l-69 -15 70 6 c94 6 157 -10
216 -55 26 -20 48 -40 49 -43 0 -3 -27 -3 -60 -1 -33 2 -81 1 -107 -4 -44 -7
-37 -9 67 -16 122 -8 219 -30 187 -43 -9 -4 -37 -1 -62 7 l-44 15 20 -28 c18
-26 36 -34 62 -30 11 2 8 -18 -14 -99 -11 -41 -21 -80 -21 -86 -1 -7 -10 -7
-28 2 -33 17 -394 28 -422 13 -10 -5 -18 -17 -18 -25 0 -9 5 -13 13 -9 6 4 2
-2 -9 -12 -29 -24 -134 -347 -134 -411 0 -9 25 24 56 74 51 82 109 154 124
154 3 0 6 -66 5 -148 l0 -147 44 -85 c24 -47 58 -105 76 -130 35 -47 121 -132
165 -162 24 -17 25 -18 6 -33 -11 -8 -32 -15 -48 -15 -33 0 -36 -15 -8 -32 11
-7 20 -18 20 -25 0 -19 18 -16 47 7 14 11 22 20 17 20 -5 0 6 13 25 29 19 17
39 27 45 24 5 -4 7 1 3 10 -5 12 1 19 18 23 14 3 25 11 25 18 0 6 5 4 10 -4 8
-13 10 -12 10 3 0 10 4 16 9 12 5 -3 12 -1 16 5 3 5 10 10 16 10 5 0 -11 -25
-36 -56 -26 -31 -58 -74 -72 -97 -14 -22 -34 -50 -44 -61 -44 -46 -14 -33 51
22 72 63 114 79 186 70 35 -4 147 51 204 100 37 31 40 38 40 83 0 47 1 49 28
49 42 0 122 54 122 83 0 4 -4 5 -10 2 -5 -3 -10 -2 -10 3 0 6 7 12 15 15 8 4
22 32 30 64 9 32 28 93 42 136 24 74 26 77 40 57 23 -33 11 -72 -87 -268 -107
-216 -107 -216 -398 -405 -108 -70 -210 -141 -227 -157 -18 -18 -47 -69 -70
-127 -43 -104 -76 -145 -151 -189 -51 -30 -129 -35 -203 -13 -50 15 -143 89
-189 149 -19 25 -56 69 -83 99 -27 29 -49 59 -49 67 0 16 -30 83 -46 104 -12
16 -125 272 -167 380 -14 36 -46 118 -71 183 -56 143 -106 330 -106 400 -1
147 -38 41 -66 -187 -8 -67 -21 -159 -28 -206 -8 -47 -17 -106 -21 -133 -4
-33 -10 -45 -18 -40 -7 4 -5 -2 3 -12 13 -16 13 -18 0 -13 -28 9 -113 242
-198 543 -54 190 -86 334 -112 495 -12 74 -23 145 -26 157 -3 16 4 26 29 40
58 35 188 165 211 212 34 67 72 195 85 286 7 44 17 107 23 140 7 33 11 69 10
80 -1 11 6 35 16 54 12 24 14 35 5 38 -8 3 -7 11 3 31 17 33 18 79 2 84 -7 3
0 11 17 19 17 8 42 36 60 69 17 30 48 77 69 105 34 44 36 50 19 56 -16 6 -15
8 7 17 14 6 54 43 89 83 36 39 101 99 145 132 45 32 85 65 89 73 22 39 220
122 368 153 121 26 309 24 379 -4z m4028 1 c-7 -8 -15 -12 -17 -11 -5 6 10 25
20 25 5 0 4 -6 -3 -14z m90 -31 c-11 -11 -108 -16 -108 -6 0 6 12 11 28 12 15
0 36 4 47 9 19 7 45 -4 33 -15z m-170 -7 c-2 -6 -10 -14 -18 -16 -8 -3 -10 0
-5 8 6 9 3 9 -13 1 -38 -20 -89 -11 -65 12 12 13 105 8 101 -5z m-149 -12 c13
-16 -99 -36 -374 -66 -99 -11 -197 -21 -217 -24 -21 -2 -41 0 -44 5 -3 5 5 10
18 11 139 9 280 31 295 46 12 13 16 12 27 -4 13 -17 14 -16 32 4 18 22 41 31
29 12 -4 -6 7 -10 27 -9 31 1 31 2 8 9 l-25 7 28 8 c20 5 33 3 47 -10 21 -19
42 -12 33 10 -4 12 6 15 50 15 34 0 59 -5 66 -14z m136 -796 c15 -7 10 -9 -22
-9 -24 -1 -43 4 -43 9 0 12 37 12 65 0z m-4392 -203 c-18 -10 -20 -15 -11 -32
11 -20 11 -20 -10 -1 -22 19 -31 43 -13 31 5 -3 12 -1 16 5 3 5 14 10 23 10
13 -1 12 -3 -5 -13z m-68 -17 c3 -5 1 -10 -4 -10 -6 0 -11 5 -11 10 0 6 2 10
4 10 3 0 8 -4 11 -10z m4495 -321 c0 -5 -20 -9 -45 -9 -46 0 -63 16 -22 22 30
5 67 -2 67 -13z m-224 -4 c18 -14 18 -14 -8 -15 -18 0 -28 5 -28 15 0 19 11
19 36 0z m394 5 c0 -5 -13 -10 -30 -10 -16 0 -30 5 -30 10 0 6 14 10 30 10 17
0 30 -4 30 -10z m-65 -170 c-3 -5 -14 -10 -23 -10 -15 0 -15 2 -2 10 20 13 33
13 25 0z m-4181 -63 c18 -29 53 -71 77 -94 41 -41 42 -43 18 -43 -29 0 -80 61
-124 149 -32 65 -17 58 29 -12z m4246 59 c0 -9 -40 -13 -46 -5 -3 5 6 9 20 9
14 0 26 -2 26 -4z m-4053 -161 c25 -23 33 -35 22 -35 -22 0 -69 38 -69 56 0
20 4 18 47 -21z m301 28 c-10 -2 -26 -2 -35 0 -10 3 -2 5 17 5 19 0 27 -2 18
-5z m67 -42 c22 -10 51 -31 65 -47 l25 -29 -30 26 c-45 38 -89 53 -141 45 -46
-6 -106 -36 -72 -36 9 0 18 -7 22 -15 4 -11 -1 -15 -19 -15 -34 0 -31 -15 8
-39 18 -11 42 -30 53 -43 l19 -22 -27 21 c-15 11 -45 24 -65 27 -42 8 -93 28
-93 36 0 17 73 73 116 90 62 24 89 24 139 1z m-382 -64 c20 -11 37 -24 37 -27
0 -9 -111 15 -138 29 -13 7 -20 16 -17 22 9 14 73 1 118 -24z m127 -1 c0 -2
-7 -9 -15 -16 -13 -11 -14 -10 -9 4 5 14 24 23 24 12z m-85 -53 c11 -4 13 -9
5 -18 -8 -9 -21 -8 -60 5 -28 9 -54 21 -58 25 -7 8 87 -1 113 -12z m118 -18
c20 -14 37 -30 37 -36 0 -5 -17 2 -37 16 -39 26 -59 32 -48 15 7 -11 -8 -14
-18 -4 -6 6 13 33 23 34 3 0 22 -11 43 -25z m-40 -47 c24 -31 22 -35 -15 -40
-15 -2 -30 -6 -33 -10 -9 -9 126 -76 170 -83 45 -8 75 -30 75 -54 0 -9 7 -2
16 15 9 19 35 42 65 58 48 27 59 23 39 -14 -8 -15 -7 -18 3 -14 16 6 47 57 47
78 0 9 5 16 10 16 15 0 12 -39 -6 -101 -26 -88 -129 -170 -260 -204 -58 -15
-151 -12 -124 5 9 6 7 10 -8 15 -33 10 -82 76 -89 118 -3 20 -10 40 -14 43
-23 14 2 101 47 165 31 45 48 46 77 7z m3540 -96 c33 -31 56 -84 39 -90 -7 -2
-12 -10 -12 -17 0 -7 -4 -15 -10 -17 -5 -1 -12 -34 -15 -73 -4 -38 -13 -108
-20 -155 -8 -47 -19 -127 -25 -177 -14 -112 -32 -179 -24 -88 7 70 29 238 45
343 7 40 9 75 6 79 -7 7 -11 -3 -25 -67 -8 -39 -9 -35 -4 31 6 101 -2 139 -39
177 l-31 32 -112 0 c-61 0 -159 -7 -217 -14 -123 -17 -383 -69 -472 -95 -34
-10 -127 -37 -207 -60 -172 -50 -403 -127 -445 -148 -16 -9 -38 -22 -48 -31
-9 -8 -20 -12 -24 -9 -11 12 63 72 113 90 168 64 258 94 409 137 94 27 184 53
200 59 63 22 492 104 600 115 22 2 97 3 167 2 118 -1 128 -3 151 -24z m78 -34
c78 -26 304 -196 286 -214 -7 -8 -198 88 -244 123 -18 13 -33 31 -33 39 0 8
-11 26 -25 39 -13 14 -23 25 -21 25 2 0 18 -5 37 -12z m-3152 -93 c16 -8 33
-28 39 -44 l11 -30 -32 20 c-22 13 -50 19 -89 19 -32 0 -58 3 -58 6 0 3 10 14
23 25 27 22 68 24 106 4z m-889 -115 c36 -7 83 -18 105 -25 22 -6 60 -10 85
-8 31 3 41 1 31 -5 -11 -8 -8 -10 11 -9 13 1 25 7 25 14 0 6 -6 9 -14 6 -16
-6 -17 2 -3 28 13 24 39 13 65 -28 10 -15 14 -25 10 -21 -12 11 -31 -14 -32
-42 0 -14 4 -41 9 -60 18 -64 91 -245 105 -262 9 -10 12 -25 8 -37 -4 -12 -2
-21 4 -21 6 0 11 5 11 10 0 6 5 10 10 10 6 0 4 -12 -4 -29 -9 -16 -12 -31 -9
-35 4 -3 1 -6 -5 -6 -7 0 -12 -4 -12 -10 0 -5 16 0 35 11 l35 21 0 -25 c0 -14
-4 -29 -10 -32 -5 -3 -10 -13 -10 -21 0 -13 4 -12 30 1 34 18 47 16 73 -7 17
-14 18 -21 7 -52 -15 -47 -56 -79 -89 -71 -14 4 -29 12 -32 18 -32 56 -55 87
-66 87 -7 0 -13 7 -13 15 0 8 -5 15 -10 15 -18 0 -151 127 -173 166 -4 8 -15
14 -24 14 -17 0 -53 28 -53 40 0 4 -16 24 -35 44 -19 21 -35 41 -35 46 0 18
-72 125 -102 152 l-33 28 40 -5 40 -6 -39 21 c-21 12 -41 30 -43 41 -3 11 -18
26 -34 35 -27 13 -37 33 -24 46 3 3 27 -5 53 -18 26 -12 76 -28 112 -34z m903
20 c25 -28 27 -36 21 -78 -9 -63 -48 -196 -62 -213 -7 -8 -41 -51 -77 -96 -75
-94 -99 -107 -154 -77 -27 14 -45 37 -72 91 -20 39 -60 98 -89 130 -57 63 -87
120 -72 135 5 5 28 12 50 15 47 6 86 -13 120 -60 12 -17 22 -27 22 -21 0 6
-13 29 -28 50 l-29 39 59 23 c33 13 89 41 126 63 58 34 73 39 112 35 34 -3 51
-11 73 -36z m-562 3 c13 -16 12 -17 -3 -4 -10 7 -18 15 -18 17 0 8 8 3 21 -13z
m979 3 c0 -7 7 -26 15 -42 13 -25 13 -30 -2 -46 -20 -22 -43 -23 -69 -2 -19
15 -19 16 1 9 57 -20 59 -20 52 12 -3 17 -9 42 -13 57 -4 16 -2 26 5 26 6 0
11 -6 11 -14z m-101 -103 c18 -14 42 -44 52 -67 21 -46 25 -111 8 -122 -8 -5
-6 -10 5 -16 33 -18 6 -78 -29 -64 -23 8 -18 28 5 21 23 -7 28 13 5 21 -11 5
-13 18 -8 63 6 63 -8 121 -34 143 -14 12 -14 10 0 -19 18 -33 22 -88 11 -142
-11 -51 -24 -24 -24 49 0 76 -13 117 -41 125 -26 8 -115 -48 -159 -100 -22
-26 -38 -38 -42 -31 -13 18 -11 21 66 86 41 35 73 66 71 69 -2 4 15 7 38 8 31
1 51 -6 76 -24z m-839 3 c0 -2 -7 -7 -16 -10 -8 -3 -12 -2 -9 4 6 10 25 14 25
6z m3527 -53 c-3 -10 -5 -4 -5 12 0 17 2 24 5 18 2 -7 2 -21 0 -30z m-346
-103 c30 -6 65 -19 79 -29 40 -30 40 -24 -85 -719 -46 -261 -99 -520 -220
-1092 -25 -118 -57 -125 -363 -81 -119 17 -271 37 -337 46 -305 40 -478 80
-500 115 -9 14 15 40 41 44 15 2 21 15 27 62 39 303 146 831 184 914 9 19 27
62 40 94 25 65 76 155 159 282 71 109 175 202 281 255 182 88 520 142 694 109z
m-2531 -59 c24 -48 72 -85 99 -76 11 3 36 17 56 31 55 37 53 23 -2 -22 -26
-21 -56 -47 -66 -57 -39 -39 -199 -59 -230 -28 -8 8 7 11 52 11 92 0 100 7 89
77 -4 32 -13 68 -18 81 -16 37 -2 25 20 -17z m2851 -47 c-6 -33 -13 -79 -16
-104 -15 -129 -27 -228 -31 -250 -3 -14 -7 -36 -9 -50 -13 -92 -36 -220 -44
-245 -8 -25 -9 -26 -10 -8 -1 13 3 42 9 65 13 60 46 275 70 456 21 159 29 206
37 199 2 -3 0 -31 -6 -63z m-2929 -6 c-7 -7 -12 -8 -12 -2 0 14 12 26 19 19 2
-3 -1 -11 -7 -17z m278 -12 c0 -6 -95 -66 -105 -66 -4 0 15 15 41 34 46 32 64
41 64 32z m-487 -173 c-7 -2 -19 -2 -25 0 -7 3 -2 5 12 5 14 0 19 -2 13 -5z
m-2242 -373 c74 -151 148 -310 164 -353 17 -47 38 -86 53 -97 31 -25 104 -27
157 -4 20 8 46 14 57 12 17 -3 15 -9 -22 -61 l-42 -58 21 -20 c11 -11 28 -33
36 -49 17 -32 31 -41 20 -13 -18 48 -16 94 5 138 12 25 27 46 33 46 7 1 22 3
35 4 14 1 22 -3 23 -14 0 -10 4 -7 10 8 7 18 6 27 -3 33 -15 11 -10 10 60 -16
48 -18 52 -23 52 -51 0 -42 -18 -92 -35 -99 -11 -4 -9 -18 11 -73 44 -119 44
-119 55 -102 8 12 9 12 7 -1 -1 -8 6 -29 15 -47 48 -90 -14 -406 -120 -612
-13 -24 -23 -51 -23 -59 0 -25 -12 -6 -41 66 -34 85 -89 215 -174 412 -36 85
-87 208 -112 275 -54 141 -103 260 -246 600 -112 267 -162 406 -171 470 l-6
40 22 -50 c13 -27 84 -174 159 -325z m2261 349 c-18 -12 -36 -19 -39 -15 -4 3
-1 6 6 6 7 0 9 4 6 10 -3 5 0 7 8 4 8 -3 18 -1 22 5 3 6 12 11 18 11 7 0 -3
-10 -21 -21z m2993 -571 c-10 -51 -20 -87 -23 -79 -5 16 28 184 36 177 2 -3
-3 -47 -13 -98z m-4358 84 c13 -8 86 -113 81 -117 -2 -1 -31 -5 -66 -8 -56 -5
-63 -3 -56 11 3 10 9 41 12 70 5 53 8 58 29 44z m-253 -11 c4 -5 3 -16 0 -25
-5 -13 -9 -14 -20 -5 -8 6 -14 18 -14 25 0 16 26 19 34 5z m191 -53 c-29 -79
-48 -87 -122 -53 -30 13 -52 29 -49 34 3 5 41 21 83 37 43 15 82 31 88 36 21
19 21 5 0 -54z m4395 -170 c0 -29 -4 -48 -9 -42 -8 8 -3 94 5 94 2 0 4 -23 4
-52z m-4090 -89 c0 -15 9 -62 20 -105 11 -44 20 -101 20 -128 0 -80 -9 -57
-45 109 -17 75 -45 158 -52 151 -3 -2 4 -51 16 -108 26 -135 35 -222 23 -214
-5 3 -42 63 -82 133 l-73 128 16 46 c9 25 24 63 33 84 l15 38 55 -54 c38 -38
54 -61 54 -80z m4290 108 c0 -10 43 -18 157 -32 144 -17 157 -17 168 -2 11 15
17 15 70 1 70 -18 74 -20 104 -75 l24 -43 -41 34 c-35 28 -51 33 -104 36 -35
2 -119 12 -188 24 -164 26 -193 26 -213 -2 -13 -19 -16 -20 -16 -5 -1 21 -8
22 -29 1 -13 -14 -17 -14 -21 -3 -2 8 -9 17 -14 21 -7 4 -4 16 7 32 13 21 24
26 56 26 26 0 40 -4 40 -13z m-4683 -349 c-2 -24 -4 -7 -4 37 0 44 2 63 4 43
2 -21 2 -57 0 -80z m1991 -123 c85 -20 409 -62 580 -75 75 -6 142 -12 148 -14
7 -3 4 -37 -9 -105 l-20 -101 -36 -6 c-20 -3 -90 -17 -156 -29 l-120 -24 -225
35 c-124 19 -337 52 -475 74 -351 55 -672 90 -822 90 -22 0 -33 5 -33 15 0 27
64 36 495 75 121 10 267 28 325 39 241 47 255 48 348 26z m-3078 -17 c-22 -10
-88 -31 -148 -48 -59 -17 -136 -44 -171 -61 -48 -22 -66 -26 -72 -17 -4 7 -4
19 0 26 11 19 266 103 311 103 25 0 31 2 20 9 -10 6 4 8 43 7 l57 -2 -40 -17z
m1097 -173 c-3 -88 -10 -173 -16 -190 -9 -25 -10 -20 -6 35 3 36 8 130 12 210
4 80 9 136 11 125 3 -11 2 -92 -1 -180z m492 84 c22 -29 22 -31 4 -16 -12 11
-27 16 -32 12 -6 -3 -15 5 -21 19 -12 32 -20 34 -12 4 3 -13 23 -45 44 -71 59
-76 44 -79 -27 -6 -36 37 -65 73 -65 81 0 8 10 20 23 25 27 13 50 1 86 -48z
m214 -69 c27 -21 43 -58 53 -125 3 -22 13 -48 22 -58 10 -12 13 -21 6 -25 -6
-4 -13 -15 -17 -25 -6 -16 -9 -16 -44 6 -29 18 -40 34 -47 63 -5 21 -17 72
-26 112 l-18 72 23 0 c12 0 34 -9 48 -20z m492 -65 c251 -32 460 -55 549 -60
38 -3 94 -9 125 -15 31 -5 147 -23 259 -40 111 -16 207 -32 213 -35 5 -4 7
-11 4 -16 -4 -5 2 -9 12 -9 14 0 15 -2 4 -9 -31 -20 34 -22 155 -6 69 10 127
15 130 12 3 -2 2 -16 -1 -29 -5 -21 -17 -27 -80 -42 -69 -16 -222 -35 -290
-36 -23 0 -27 -2 -16 -12 18 -19 210 -15 295 5 38 10 70 16 72 14 2 -2 7 -18
10 -35 l7 -32 -52 0 c-51 0 -68 -13 -31 -25 10 -3 44 -41 74 -83 30 -42 65
-88 78 -102 12 -14 58 -65 101 -113 44 -48 83 -87 89 -87 5 0 6 5 2 11 -5 8
-1 8 14 0 11 -6 25 -24 30 -41 6 -16 16 -30 21 -30 6 0 11 -5 11 -11 0 -5 -4
-7 -10 -4 -5 3 -21 -2 -35 -11 -28 -18 -85 -13 -108 11 -8 8 -17 11 -21 8 -3
-4 -6 1 -6 9 0 9 -25 39 -56 67 -31 29 -79 79 -107 112 -27 33 -52 58 -54 55
-3 -2 -20 11 -39 31 -19 19 -34 31 -34 27 0 -4 -5 -3 -12 4 -7 7 -20 12 -29
12 -10 0 -20 8 -22 18 -4 14 -6 14 -12 -5 -4 -13 -15 -23 -24 -24 -9 0 -36 -1
-59 -3 -38 -2 -51 3 -94 38 -35 28 -47 33 -40 19 7 -12 30 -35 52 -53 22 -17
40 -36 40 -41 0 -19 -76 -9 -112 16 -43 29 -52 31 -44 9 5 -14 4 -15 -9 -4
-22 18 -27 8 -9 -18 11 -16 25 -22 51 -22 64 0 158 -21 195 -43 44 -27 240
-180 284 -223 37 -35 53 -79 35 -97 -7 -7 -31 -12 -55 -11 -36 1 -49 7 -82 40
-22 21 -66 52 -99 69 -68 34 -155 92 -171 114 -17 22 -102 29 -359 30 l-230 1
-80 46 c-99 58 -152 99 -160 124 -9 27 18 83 46 97 13 7 74 19 134 28 148 20
523 99 535 112 3 3 -18 2 -46 -2 -35 -4 -87 0 -165 14 -63 11 -191 32 -286 46
-95 14 -241 36 -325 49 -84 13 -217 30 -295 37 -111 9 -143 15 -143 26 0 8 -8
13 -17 12 -38 -3 -49 3 -76 41 -33 47 -26 54 43 42 41 -7 47 -5 68 20 13 15
31 28 40 28 10 0 107 -11 217 -25z m23 -189 c142 -24 305 -64 334 -83 7 -4 42
-8 77 -10 35 -1 67 -7 71 -13 4 -6 14 -8 22 -5 9 4 19 2 23 -4 3 -6 16 -9 29
-5 16 4 23 1 23 -10 0 -18 -7 -19 -40 -7 -17 7 -24 6 -24 -4 0 -7 6 -11 14 -8
7 3 13 1 13 -5 0 -5 -21 -12 -47 -15 -45 -5 -53 -2 -123 45 -72 48 -77 50
-131 45 -56 -5 -139 -42 -139 -62 0 -6 -13 -22 -29 -36 l-30 -26 -43 19 c-23
10 -45 23 -48 28 -3 5 -59 23 -123 40 -136 36 -159 33 -236 -26 -58 -44 -70
-33 -47 41 17 52 36 73 36 40 0 -8 5 -15 11 -15 7 0 8 7 4 18 -12 26 -18 70
-12 84 7 19 230 5 415 -26z m2100 -1 c178 -28 164 -23 158 -53 -2 -15 -10 -57
-16 -94 -10 -57 -16 -68 -32 -68 -10 0 -17 4 -13 10 6 10 -30 21 -130 40 -33
6 -76 16 -96 21 l-36 9 15 75 c17 87 6 82 150 60z m-1764 -141 c35 -18 66 -44
66 -54 0 -4 -18 1 -40 12 -75 37 -140 5 -203 -100 -63 -104 -83 -206 -66 -329
12 -88 37 -148 79 -188 33 -32 38 -65 14 -86 -9 -8 -59 -28 -110 -44 -111 -36
-100 -52 -109 160 -6 139 -5 159 20 270 45 208 124 340 225 379 22 8 88 -2
124 -20z m1627 -22 c-7 -2 -18 1 -23 6 -8 8 -4 9 13 5 13 -4 18 -8 10 -11z
m-1374 2 c-3 -3 -12 -4 -19 -1 -8 3 -5 6 6 6 11 1 17 -2 13 -5z m1238 -474 c4
-6 -5 -10 -19 -10 -14 0 -26 5 -26 10 0 6 9 10 19 10 11 0 23 -4 26 -10z m130
-21 c66 -15 85 -32 25 -23 -25 4 -53 11 -62 15 -9 5 -28 9 -42 9 -14 0 -26 4
-26 8 0 10 37 7 105 -9z m2008 -6 c-7 -2 -19 -2 -25 0 -7 3 -2 5 12 5 14 0 19
-2 13 -5z m-70 -10 c-13 -2 -33 -2 -45 0 -13 2 -3 4 22 4 25 0 35 -2 23 -4z
m-1703 -15 c49 -1 140 -21 140 -30 0 -6 6 -8 14 -5 8 3 17 3 20 -1 4 -3 26 -7
49 -8 23 -1 60 -5 82 -8 79 -12 182 -28 285 -46 203 -36 476 -68 612 -72 43
-2 78 -4 78 -4 0 -1 -34 -14 -76 -29 -57 -21 -89 -40 -127 -77 -48 -47 -858
-593 -945 -637 -41 -21 -45 -21 -122 -7 -85 17 -180 47 -214 69 -11 8 -36 35
-54 60 l-32 46 35 17 c19 9 35 20 35 25 0 5 18 9 41 9 59 0 79 14 79 55 0 35
-5 39 -47 35 -13 -1 -23 3 -23 9 0 6 7 11 15 11 8 0 15 5 15 10 0 20 -24 9
-66 -32 -35 -34 -54 -44 -89 -48 -25 -3 -45 -3 -45 0 0 4 -6 7 -12 7 -34 0
-838 259 -838 269 0 3 21 14 47 25 52 22 62 21 203 -21 36 -11 134 -40 219
-65 84 -25 207 -63 273 -85 67 -22 125 -40 130 -40 6 0 43 16 83 35 111 52
205 95 210 95 3 0 53 23 112 51 100 47 123 57 178 80 25 10 132 57 203 89 28
13 52 27 52 31 0 11 -51 49 -66 49 -7 0 -17 -8 -23 -17 -5 -10 -11 -16 -13
-13 -2 3 -10 18 -18 34 -13 26 -26 32 -105 52 -49 13 -103 23 -120 24 -24 0
-174 27 -255 45 -8 2 -25 4 -37 4 -13 1 -23 5 -23 10 0 5 26 7 58 4 31 -2 68
-5 82 -5z m1545 -4 c-49 -7 -130 -15 -180 -18 -101 -5 -81 -1 80 19 143 17
216 17 100 -1z m-372 -12 c-3 -14 -12 -17 -39 -14 -49 6 -45 32 5 32 33 0 38
-3 34 -18z m-1593 1 c-8 -2 -25 -9 -37 -15 -13 -6 -26 -8 -30 -5 -3 4 1 7 10
7 10 0 17 5 17 10 0 6 12 10 28 9 15 0 20 -3 12 -6z m84 -14 c-3 -5 -16 -9
-29 -9 -13 0 -27 -4 -30 -10 -3 -5 -11 -10 -18 -10 -15 0 3 18 35 34 25 13 52
10 42 -5z m91 0 c10 -14 1 -21 -19 -13 -9 3 -13 10 -10 15 7 12 21 11 29 -2z
m1498 -6 c-13 -2 -35 -2 -50 0 -16 2 -5 4 22 4 28 0 40 -2 28 -4z m-1548 -23
c17 -7 14 -9 -13 -9 -20 -1 -31 3 -27 9 7 12 13 12 40 0z m169 -5 c-4 -9 -18
-15 -38 -14 -21 1 -24 3 -11 6 11 3 24 9 30 14 14 14 25 11 19 -6z m-86 -7
c-6 -18 -28 -21 -28 -4 0 9 7 16 16 16 9 0 14 -5 12 -12z m165 -28 c-17 -20
-43 -27 -43 -12 0 14 23 32 42 32 17 0 17 -1 1 -20z m-503 1 c0 -5 -6 -11 -14
-14 -19 -8 -57 3 -50 14 7 12 64 12 64 0z m430 0 c0 -10 -30 -24 -37 -17 -3 3
-2 9 2 15 8 13 35 15 35 2z m167 -16 c-9 -18 -20 -25 -41 -25 -28 0 -29 1 -12
19 10 11 24 17 31 15 7 -3 16 -1 20 5 12 20 13 11 2 -14z m-377 5 c0 -5 -8
-10 -17 -10 -15 0 -16 2 -3 10 19 12 20 12 20 0z m560 -10 c-8 -5 -26 -6 -40
-3 -22 6 -23 4 -12 -10 11 -13 10 -16 -8 -22 -12 -4 -26 -3 -32 3 -12 12 29
39 68 44 35 4 43 0 24 -12z m-670 6 c0 -2 -11 -11 -25 -20 -30 -19 -90 -12
-63 8 14 10 88 21 88 12z m65 -6 c-3 -5 -14 -10 -23 -10 -15 0 -15 2 -2 10 20
13 33 13 25 0z m-280 -10 c8 -13 -25 -13 -45 0 -12 8 -9 10 12 10 15 0 30 -4
33 -10z m391 -15 c7 -17 -12 -45 -30 -45 -6 0 -5 4 3 9 17 11 -3 25 -21 15 -7
-4 -4 2 6 14 22 26 34 28 42 7z m553 -8 c-44 -24 -62 -20 -39 8 7 8 28 15 48
15 l35 0 -44 -23z m-649 -2 c-13 -16 -40 -20 -40 -7 0 14 12 22 33 22 16 0 17
-3 7 -15z m130 11 c0 -3 -4 -8 -10 -11 -5 -3 -10 -1 -10 4 0 6 5 11 10 11 6 0
10 -2 10 -4z m-475 -16 c-3 -5 -13 -10 -21 -10 -8 0 -12 5 -9 10 3 6 13 10 21
10 8 0 12 -4 9 -10z m543 2 c9 -7 8 -13 -8 -27 -18 -16 -20 -16 -20 -2 0 10
-6 17 -12 17 -9 0 -8 4 2 10 18 12 22 12 38 2z m-463 -22 c-19 -21 -35 -26
-35 -12 0 5 10 14 23 20 31 15 32 14 12 -8z m574 -3 c34 -14 31 -27 -5 -27
-17 0 -22 4 -17 16 4 12 0 14 -22 8 -20 -5 -26 -4 -21 5 9 14 27 14 65 -2z
m-762 -14 c4 -12 -34 -29 -44 -19 -3 3 -3 12 1 21 7 18 37 17 43 -2z m891 -12
c-23 -31 -38 -38 -38 -21 0 5 8 14 18 20 17 12 14 11 -35 -4 -13 -4 -23 -5
-23 -1 0 9 61 34 83 35 17 0 16 -3 -5 -29z m112 21 c0 -9 -44 -32 -60 -32 -21
0 -9 19 18 28 35 13 42 14 42 4z m-1082 -20 c2 -7 -6 -12 -17 -12 -21 0 -27
11 -14 24 9 9 26 2 31 -12z m367 8 c-3 -5 -15 -10 -26 -10 -10 0 -19 5 -19 10
0 6 12 10 26 10 14 0 23 -4 19 -10z m100 0 c-12 -19 -41 -29 -56 -19 -12 8
-12 10 1 19 20 13 63 13 55 0z m-310 -9 c7 -12 -27 -31 -56 -31 -21 0 -22 1
-4 20 19 21 50 26 60 11z m398 -11 c6 0 2 -7 -9 -15 -10 -8 -30 -15 -43 -15
-24 0 -24 0 -6 20 10 12 25 18 33 15 7 -3 19 -5 25 -5z m-303 -18 c0 -8 -58
-32 -78 -32 -20 0 -13 16 11 28 26 13 67 15 67 4z m355 -12 c-32 -21 -45 -19
-25 5 7 8 22 15 34 15 19 0 18 -2 -9 -20z m85 4 c0 -3 -5 -14 -10 -25 -9 -16
-15 -17 -31 -8 -20 10 -20 11 -2 24 18 15 43 20 43 9z m-398 -24 c-42 -26 -60
-26 -37 0 10 11 30 20 44 20 26 0 26 0 -7 -20z m468 6 c-14 -7 -36 -17 -50
-20 l-25 -7 24 20 c13 12 35 21 50 21 l26 -1 -25 -13z m-645 -37 c215 -51 204
-48 183 -60 -13 -7 -52 -1 -135 20 -65 16 -145 34 -178 41 -82 16 -95 20 -95
31 0 17 54 9 225 -32z m744 34 c-1 -15 -59 -54 -75 -51 -13 2 -11 8 10 31 23
24 67 38 65 20z m-469 -12 l25 -7 -31 -17 c-17 -9 -41 -13 -53 -10 -21 5 -21
7 -5 24 18 20 25 21 64 10z m104 -31 c-12 -5 -25 -13 -29 -19 -7 -13 -55 -15
-55 -2 0 9 55 29 85 29 19 1 19 0 -1 -8z m89 -7 c11 -11 -26 -32 -57 -33 l-29
0 23 20 c23 20 51 26 63 13z m131 -39 c-23 -7 -51 -17 -63 -23 -16 -9 -24 -9
-35 1 -12 11 -11 16 5 34 18 19 24 20 76 10 l58 -10 -41 -12z m-1309 16 c-3
-5 -10 -10 -16 -10 -5 0 -9 5 -9 10 0 6 7 10 16 10 8 0 12 -4 9 -10z m979 -39
c19 -7 19 -8 -2 -13 -27 -8 -64 1 -56 13 6 11 31 11 58 0z m114 -17 c21 -6 21
-7 5 -20 -10 -7 -26 -14 -35 -14 -10 0 -18 -4 -18 -10 0 -5 -12 -10 -27 -10
-27 1 -27 1 -9 15 11 8 16 15 12 15 -5 0 -3 7 4 15 13 16 31 18 68 9z m97 -24
c-3 -5 -20 -10 -36 -10 -18 0 -28 4 -24 10 3 6 20 10 36 10 18 0 28 -4 24 -10z
m-2228 -66 c104 -31 335 -113 418 -149 17 -7 59 -22 95 -35 76 -25 100 -36
240 -103 104 -50 105 -51 70 -58 -32 -7 -97 0 -162 16 -17 4 -28 3 -28 -3 0
-6 -20 -5 -53 4 -72 18 -533 192 -630 237 l-77 36 0 45 c0 25 2 46 4 46 3 0
58 -16 123 -36z m1683 -98 c36 -13 99 -37 140 -54 41 -16 120 -42 175 -57 241
-66 218 -56 243 -105 24 -48 29 -106 10 -112 -7 -3 -26 2 -43 10 -58 29 -65
32 -77 32 -9 0 -8 -3 2 -10 12 -8 10 -10 -8 -10 -15 0 -21 4 -16 12 5 8 2 9
-10 5 -9 -4 -65 9 -124 28 -58 19 -108 33 -109 31 -4 -3 63 -29 232 -91 50
-18 102 -38 117 -45 30 -14 55 -71 42 -92 -5 -7 -18 -40 -30 -73 -12 -33 -32
-87 -44 -120 -12 -33 -25 -62 -29 -65 -5 -3 -11 -16 -14 -30 -8 -34 -47 -74
-59 -62 -5 5 -10 18 -11 30 0 11 -5 18 -9 16 -7 -5 -10 3 -7 24 1 4 4 6 8 5 7
-2 9 5 13 46 1 11 8 17 15 14 9 -4 11 0 7 13 -5 15 -4 16 5 8 14 -13 51 -7 51
8 0 27 -26 48 -86 68 -61 21 -97 20 -64 0 12 -8 11 -10 -4 -10 -37 0 -137 33
-133 44 3 6 10 10 16 8 21 -4 11 16 -11 22 -34 9 -37 8 -31 -15 9 -32 -29 -21
-45 14 -19 39 -35 23 -29 -30 6 -54 20 -69 112 -119 149 -80 174 -103 140
-128 -17 -12 -17 -13 3 -18 25 -7 42 -40 23 -46 -7 -2 -20 -12 -29 -22 -12
-13 -26 -16 -50 -13 l-34 6 29 18 c15 10 26 19 23 20 -3 0 -39 3 -80 5 -67 4
-110 16 -162 44 -23 13 -31 13 -23 0 3 -5 0 -10 -9 -10 -8 0 -17 6 -20 13 -3
8 -9 7 -20 -7 -10 -13 -22 -17 -39 -12 -17 4 -27 1 -31 -9 -6 -17 -26 -20 -26
-4 0 13 -25 39 -38 39 -5 0 -15 12 -23 26 l-13 26 -9 -33 c-7 -26 -11 -30 -16
-17 -4 13 -10 15 -21 8 -13 -9 -13 -11 0 -20 10 -7 11 -10 2 -10 -7 0 -17 11
-22 25 -5 14 -12 25 -15 25 -4 0 -3 -4 0 -10 3 -5 -5 -15 -19 -22 -14 -6 -26
-17 -26 -25 0 -9 -7 -6 -20 7 -12 12 -26 18 -33 13 -6 -4 -31 -8 -56 -9 -24
-2 -49 -8 -54 -13 -5 -5 -23 -7 -38 -4 -16 3 -29 1 -29 -4 0 -14 -150 -8 -181
6 -14 7 -36 30 -49 51 -16 26 -28 36 -35 30 -7 -6 -15 6 -24 38 -38 132 -66
214 -97 281 -19 41 -34 79 -34 85 0 12 114 68 237 117 43 17 101 41 128 54 82
37 115 51 225 95 58 23 119 48 135 57 72 37 150 40 235 9z m-3504 -145 c5 -6
79 -12 164 -15 85 -2 232 -7 325 -10 94 -3 197 -7 230 -9 214 -15 288 -19 352
-21 40 0 73 -4 73 -8 0 -3 87 -6 193 -6 213 0 791 -41 818 -58 21 -13 60 -107
57 -137 -3 -32 -38 -54 -38 -24 0 30 -53 31 -64 1 -3 -9 1 -14 11 -14 9 0 14
-2 11 -5 -10 -10 -128 30 -128 43 0 6 -12 12 -27 12 -16 0 -39 3 -52 7 -21 5
-23 3 -16 -18 l7 -24 -21 23 c-20 20 -31 22 -131 22 -78 0 -110 -4 -113 -12
-3 -10 -7 -10 -20 1 -13 10 -20 11 -31 2 -10 -9 -16 -9 -21 -1 -9 14 -155 10
-155 -4 0 -7 -3 -8 -8 -1 -4 6 -56 11 -117 11 -98 2 -191 5 -448 19 -67 3 -77
1 -66 -11 10 -12 5 -14 -30 -14 -42 0 -59 19 -18 21 21 1 21 1 -3 8 -32 10
-50 3 -43 -15 6 -17 -1 -18 -28 -1 -17 10 -22 9 -33 -5 -15 -20 -42 -25 -30
-6 5 8 2 9 -12 3 -10 -4 -32 -12 -49 -18 -16 -5 -57 -20 -90 -33 -66 -24 -122
-40 -173 -48 -30 -5 -40 0 -94 51 -62 60 -218 270 -218 294 0 12 24 11 36 0z
m2499 -165 c95 -149 155 -372 155 -572 -1 -112 -35 -310 -72 -413 -23 -64 -24
-65 -73 -78 -28 -7 -83 -15 -124 -19 l-74 -7 6 74 c3 41 11 126 17 189 15 142
8 378 -15 485 -32 150 -97 327 -129 347 -20 13 0 17 125 29 68 6 126 13 128
15 12 11 24 -1 56 -50z m1665 -376 c0 -5 -2 -10 -4 -10 -3 0 -8 5 -11 10 -3 6
-1 10 4 10 6 0 11 -4 11 -10z m-30 -14 c0 -3 -4 -8 -10 -11 -5 -3 -10 -1 -10
4 0 6 5 11 10 11 6 0 10 -2 10 -4z m109 -150 c19 -14 40 -26 47 -26 7 0 16 -4
19 -10 9 -15 -43 7 -73 30 -13 11 -33 20 -43 20 -19 0 -32 13 -22 23 7 7 26
-2 72 -37z m-1110 2 c-24 -9 -59 -2 -59 12 0 14 33 17 58 6 l24 -10 -23 -8z
m-54 -18 c14 -28 14 -31 0 -36 -9 -4 -24 1 -35 11 -15 13 -17 22 -9 36 14 27
26 24 44 -11z m190 21 c3 -5 2 -12 -3 -15 -5 -3 -9 1 -9 9 0 17 3 19 12 6z
m326 -23 c-10 -11 -11 -10 -5 5 5 14 2 16 -12 11 -16 -5 -16 -4 -4 5 20 14 39
-4 21 -21z m-581 -4 c0 -14 -21 -19 -33 -7 -9 9 13 34 24 27 5 -3 9 -12 9 -20z
m197 20 c-3 -3 -12 -4 -19 -1 -8 3 -5 6 6 6 11 1 17 -2 13 -5z m481 -19 c3 -3
-5 -5 -17 -5 -14 0 -20 -4 -15 -12 4 -7 3 -8 -5 -4 -6 4 -9 12 -6 17 8 12 -1
11 -28 -2 -21 -10 -21 -10 -3 5 18 14 60 15 74 1z m42 -10 c0 -8 -7 -15 -15
-15 -8 0 -15 7 -15 15 0 8 7 15 15 15 8 0 15 -7 15 -15z m667 -51 c81 -42 151
-84 141 -84 -9 0 -218 111 -218 116 0 8 9 4 77 -32z m-1365 4 c-9 -9 -15 -9
-24 0 -9 9 -7 12 12 12 19 0 21 -3 12 -12z m1439 -75 c13 -17 13 -17 -6 -3
-11 8 -22 16 -24 17 -2 2 0 3 6 3 6 0 17 -8 24 -17z m289 -127 c0 -6 -5 -5
-12 2 -7 7 -26 12 -42 12 -24 0 -27 3 -16 10 12 8 9 10 -11 10 -15 0 -32 7
-39 15 -7 8 -16 12 -21 9 -5 -3 -9 -1 -9 5 0 6 -11 13 -25 17 -14 3 -25 10
-25 16 0 5 -5 6 -12 2 -7 -4 -8 -3 -4 4 8 13 216 -86 216 -102z m-270 74 c8
-5 11 -10 5 -10 -5 0 -17 5 -25 10 -8 5 -10 10 -5 10 6 0 17 -5 25 -10z m313
-95 c-3 -9 -8 -14 -10 -11 -3 3 -2 9 2 15 9 16 15 13 8 -4z m104 -57 c15 -6
33 -12 38 -12 19 -2 310 -148 317 -160 4 -6 8 -7 8 -2 0 5 7 3 15 -4 8 -7 12
-17 8 -23 -4 -6 0 -8 10 -4 10 3 17 2 17 -3 0 -16 -30 -11 -36 5 -4 8 -10 13
-14 10 -5 -3 -11 -1 -15 5 -3 5 -16 10 -28 10 -24 1 -60 24 -51 32 6 7 -89 53
-129 63 -15 4 -27 11 -27 15 0 5 -17 14 -37 21 -33 11 -100 44 -112 55 -8 7 8
4 36 -8z m218 -59 c30 -11 55 -25 55 -30 0 -6 5 -7 12 -3 6 4 8 3 4 -4 -4 -7
-25 -2 -64 15 -95 43 -100 57 -7 22z m-1595 -85 c0 -2 -9 0 -20 6 -11 6 -20
13 -20 16 0 2 9 0 20 -6 11 -6 20 -13 20 -16z m220 -117 c151 -82 193 -104
285 -155 55 -30 118 -67 140 -82 22 -14 66 -39 97 -56 32 -16 68 -37 80 -47
22 -17 21 -17 -17 0 -154 67 -795 430 -795 450 0 3 35 -14 78 -38 42 -23 102
-56 132 -72z"/>
<path d="M4080 7620 c-9 -6 -10 -10 -3 -10 6 0 15 5 18 10 8 12 4 12 -15 0z"/>
<path d="M3995 7580 c-3 -6 1 -7 9 -4 18 7 21 14 7 14 -6 0 -13 -4 -16 -10z"/>
<path d="M4790 7361 c-34 -7 -100 -37 -100 -46 0 -2 50 -2 110 1 62 2 110 0
110 -5 0 -13 -60 -39 -121 -52 -47 -10 -51 -13 -35 -25 11 -7 15 -18 10 -25
-5 -9 -2 -10 12 -4 10 4 45 14 78 21 32 7 69 22 81 34 13 12 41 24 64 27 46 6
49 12 22 37 -44 40 -140 55 -231 37z"/>
<path d="M5720 7299 l25 -20 -25 6 c-19 5 -22 4 -10 -4 11 -8 11 -11 2 -11 -7
0 1 -15 17 -32 17 -18 31 -36 31 -40 0 -15 -19 -8 -29 10 -9 15 -10 15 -11 0
0 -9 4 -18 8 -20 12 -5 52 -65 52 -78 0 -6 15 -34 33 -63 35 -55 97 -186 97
-204 0 -6 10 -33 22 -60 l22 -48 6 55 c7 77 -5 183 -31 264 -22 68 -99 197
-134 226 -14 11 -17 11 -11 2 7 -12 4 -12 -14 -2 -18 10 -20 14 -9 21 8 5 10
9 4 10 -5 0 -23 2 -40 4 l-30 4 25 -20z m30 -39 c0 -5 -4 -10 -9 -10 -6 0 -13
5 -16 10 -3 6 1 10 9 10 9 0 16 -4 16 -10z m34 -91 c-3 -5 -10 -7 -15 -3 -5 3
-7 10 -3 15 3 5 10 7 15 3 5 -3 7 -10 3 -15z"/>
<path d="M4173 7195 c-18 -8 -33 -16 -33 -19 0 -7 63 13 74 24 14 14 -3 12
-41 -5z"/>
<path d="M4780 7164 l-35 -16 25 -9 24 -10 -28 -18 c-22 -14 -29 -28 -31 -55
-2 -33 0 -36 26 -36 47 0 75 20 97 68 12 26 29 57 38 70 16 22 16 22 -32 22
-27 -1 -65 -8 -84 -16z"/>
<path d="M4135 7161 c-44 -8 -110 -39 -101 -48 5 -6 156 45 156 53 0 2 -3 3
-7 3 -5 -1 -26 -5 -48 -8z"/>
<path d="M4358 7153 c7 -3 16 -2 19 1 4 3 -2 6 -13 5 -11 0 -14 -3 -6 -6z"/>
<path d="M4318 7143 c7 -3 16 -2 19 1 4 3 -2 6 -13 5 -11 0 -14 -3 -6 -6z"/>
<path d="M4225 7130 c-27 -7 -27 -8 -5 -8 14 0 39 4 55 8 27 7 27 8 5 8 -14 0
-38 -4 -55 -8z"/>
<path d="M4133 7113 c9 -2 23 -2 30 0 6 3 -1 5 -18 5 -16 0 -22 -2 -12 -5z"/>
<path d="M6155 7018 c22 -98 25 -130 19 -188 -6 -62 -5 -64 12 -48 13 13 17
32 17 81 -2 68 -28 177 -44 177 -5 0 -7 -10 -4 -22z"/>
<path d="M3988 6993 c7 -3 16 -2 19 1 4 3 -2 6 -13 5 -11 0 -14 -3 -6 -6z"/>
<path d="M3916 6979 c4 -8 -1 -9 -16 -4 -15 5 -20 4 -16 -4 4 -6 24 -11 44
-10 31 0 34 2 17 10 -15 7 -10 8 20 4 29 -3 34 -2 20 5 -29 13 -78 12 -69 -1z"/>
<path d="M4535 6969 c-67 -22 -207 -39 -320 -39 -83 0 -132 -5 -160 -15 -37
-15 -28 -15 150 -11 196 6 277 18 355 54 47 21 30 28 -25 11z"/>
<path d="M6240 6885 c-1 -44 -2 -84 -1 -88 1 -4 -5 -36 -13 -70 -18 -76 -14
-85 8 -20 21 60 30 188 17 228 -8 25 -10 17 -11 -50z"/>
<path d="M3804 6935 c-10 -8 -14 -15 -7 -15 19 0 43 11 43 21 0 13 -14 11 -36
-6z"/>
<path d="M3793 6846 c-93 -44 -175 -137 -180 -206 -1 -14 -5 -38 -9 -55 -6
-25 0 -20 38 31 71 95 142 144 210 144 32 0 77 -50 93 -102 8 -29 24 -60 36
-71 50 -46 -6 -75 -89 -44 -62 22 -89 18 -136 -23 -74 -65 -84 -152 -26 -219
17 -18 30 -38 30 -43 0 -5 12 -25 27 -45 l27 -35 13 58 c17 74 34 99 83 124
49 25 82 68 110 148 29 80 24 175 -13 249 -29 57 -50 77 -100 98 -47 20 -53
19 -114 -9z"/>
<path d="M4556 6715 c-3 -8 -1 -15 4 -15 6 0 10 7 10 15 0 8 -2 15 -4 15 -2 0
-6 -7 -10 -15z"/>
<path d="M6191 6624 c0 -11 3 -14 6 -6 3 7 2 16 -1 19 -3 4 -6 -2 -5 -13z"/>
<path d="M3451 6541 c-6 -28 -11 -80 -11 -114 0 -63 -12 -111 -49 -205 -33
-83 -25 -93 32 -42 19 16 37 27 41 23 3 -3 6 -43 6 -87 0 -159 58 -286 132
-286 37 0 58 -15 58 -41 0 -35 19 -28 47 18 32 51 57 122 68 188 3 22 17 57
31 77 30 46 30 53 1 54 -24 2 -31 -14 -53 -108 -8 -37 -38 -61 -74 -60 -67 2
-67 2 -119 166 -28 90 -45 255 -38 376 4 66 3 90 -4 77 -6 -9 -14 -15 -20 -12
-5 4 -9 0 -9 -7 -1 -7 -7 -2 -14 11 -13 24 -14 23 -25 -28z"/>
<path d="M4654 6569 c-17 -5 -37 -16 -44 -24 -17 -20 -12 -19 46 9 51 26 51
30 -2 15z"/>
<path d="M6325 6518 c-21 -96 -144 -270 -202 -285 -23 -5 -50 -40 -40 -50 3
-2 34 7 69 21 36 14 69 26 74 26 22 0 93 184 109 278 8 49 0 57 -10 10z"/>
<path d="M6017 6384 c-4 -77 -9 -159 -13 -184 -4 -33 -3 -41 5 -30 6 8 11 11
11 6 0 -5 -8 -18 -17 -28 -9 -11 -17 -35 -17 -58 0 -41 -11 -54 -19 -22 -2 9
-3 -2 -3 -25 1 -32 4 -39 13 -30 16 17 39 78 38 102 0 11 3 23 8 26 4 3 9 19
12 35 2 16 9 58 15 94 14 80 6 194 -16 234 -8 14 -12 -16 -17 -120z"/>
<path d="M5031 6469 c-40 -16 -19 -18 34 -4 39 11 43 14 20 14 -16 0 -41 -5
-54 -10z"/>
<path d="M4040 6410 c-6 -11 -8 -20 -6 -20 3 0 10 9 16 20 6 11 8 20 6 20 -3
0 -10 -9 -16 -20z"/>
<path d="M4179 6403 c-13 -16 -12 -17 4 -4 16 13 21 21 13 21 -2 0 -10 -8 -17
-17z"/>
<path d="M3621 6293 c-1 -12 4 -25 9 -28 12 -7 12 2 0 30 -8 19 -9 19 -9 -2z"/>
<path d="M5685 6210 c23 -41 77 -96 137 -141 73 -55 120 -110 100 -117 -7 -2
-12 -10 -12 -18 0 -8 -7 -17 -15 -20 -10 -4 -13 -14 -9 -30 8 -31 -17 -33 -31
-2 -6 12 -42 44 -81 70 -50 34 -92 75 -144 140 -97 122 -112 137 -61 60 59
-87 125 -160 190 -208 80 -59 98 -83 97 -124 -1 -27 -7 -37 -28 -48 -16 -7
-27 -21 -27 -30 1 -15 2 -15 6 0 4 16 6 16 19 4 8 -8 11 -23 8 -33 -5 -16 -4
-16 10 1 9 11 16 25 16 30 0 6 23 59 51 118 l52 106 -21 23 c-12 12 -19 27
-15 32 3 6 1 7 -5 3 -16 -10 -15 6 1 24 10 12 9 12 -5 1 -16 -12 -24 -9 -65
17 -25 17 -75 59 -111 94 -36 34 -61 56 -57 48z"/>
<path d="M4480 6075 c0 -7 109 -55 124 -55 6 1 -18 14 -53 30 -67 32 -71 33
-71 25z"/>
<path d="M5566 5834 c-21 -25 -53 -54 -70 -65 -20 -12 -25 -19 -14 -19 21 0
68 39 108 91 44 55 23 49 -24 -7z"/>
<path d="M5656 5854 c-5 -14 -4 -15 9 -4 17 14 19 20 6 20 -5 0 -12 -7 -15
-16z"/>
<path d="M4345 5816 c-65 -31 -56 -32 25 -1 36 13 56 24 45 24 -11 1 -42 -10
-70 -23z"/>
<path d="M4200 5664 c-22 -20 -40 -41 -40 -48 0 -6 5 -3 11 7 6 10 29 31 51
47 23 17 36 30 30 30 -7 0 -30 -16 -52 -36z"/>
<path d="M8458 7673 c7 -3 16 -2 19 1 4 3 -2 6 -13 5 -11 0 -14 -3 -6 -6z"/>
<path d="M8441 5614 c0 -11 3 -14 6 -6 3 7 2 16 -1 19 -3 4 -6 -2 -5 -13z"/>
<path d="M4777 5439 c7 -7 15 -10 18 -7 3 3 -2 9 -12 12 -14 6 -15 5 -6 -5z"/>
<path d="M3560 3371 c0 -5 7 -15 17 -22 15 -13 15 -12 4 9 -12 23 -21 28 -21
13z"/>
<path d="M6255 3019 c-9 -14 -2 -20 14 -10 8 6 9 11 3 15 -6 3 -14 1 -17 -5z"/>
<path d="M5691 2922 c7 -10 17 -19 23 -20 6 -1 29 -4 51 -7 33 -4 35 -3 13 4
-15 5 -37 16 -50 25 -32 23 -52 21 -37 -2z"/>
<path d="M6670 2741 c0 -5 7 -12 16 -15 14 -5 15 -4 4 9 -14 17 -20 19 -20 6z"/>
<path d="M6645 2690 c-3 -5 1 -10 9 -10 8 0 18 5 21 10 3 6 -1 10 -9 10 -8 0
-18 -4 -21 -10z"/>
<path d="M6950 3281 c0 -15 14 -21 88 -34 170 -31 173 -32 166 -13 -4 9 -12
15 -18 13 -6 -2 -17 3 -23 12 -11 14 -14 14 -23 1 -9 -13 -11 -13 -19 -1 -6
10 -28 15 -65 15 -35 1 -58 6 -61 14 -7 20 -45 15 -45 -7z m97 -17 c-3 -3 -12
-4 -19 -1 -8 3 -5 6 6 6 11 1 17 -2 13 -5z"/>
<path d="M7158 3193 c7 -3 16 -2 19 1 4 3 -2 6 -13 5 -11 0 -14 -3 -6 -6z"/>
<path d="M7140 3165 c0 -8 7 -15 15 -15 9 0 12 6 9 15 -4 8 -10 15 -15 15 -5
0 -9 -7 -9 -15z"/>
<path d="M5020 2571 c0 -10 -6 -36 -14 -57 -7 -22 -11 -54 -9 -71 5 -30 9 -33
38 -33 86 0 114 42 62 93 -18 18 -38 44 -44 60 -14 31 -33 36 -33 8z"/>
<path d="M7575 2229 c-11 -17 -2 -18 19 -3 17 12 17 14 4 14 -9 0 -20 -5 -23
-11z"/>
<path d="M7666 2226 c12 -31 -57 -55 -94 -32 -16 10 -15 1 3 -34 20 -39 58
-48 102 -25 30 16 34 23 31 53 -2 25 -9 37 -25 43 -16 6 -21 5 -17 -5z"/>
<path d="M7280 2175 c0 -17 5 -25 13 -22 6 2 12 12 12 22 0 10 -6 20 -12 23
-8 2 -13 -6 -13 -23z"/>
<path d="M7454 2115 c6 -17 -29 -35 -70 -35 -28 0 -30 -11 -8 -45 22 -34 86
-35 108 -3 16 22 13 61 -7 86 -13 17 -30 15 -23 -3z"/>
<path d="M6558 1512 c8 -5 14 -13 15 -17 2 -10 47 -14 47 -4 0 4 -8 9 -17 12
-10 2 -27 8 -38 12 -14 5 -16 4 -7 -3z"/>
<path d="M6133 1355 c0 -22 2 -30 4 -17 2 12 2 30 0 40 -3 9 -5 -1 -4 -23z"/>
<path d="M5225 838 c-27 -21 -32 -47 -13 -66 33 -33 96 6 84 51 -8 33 -40 40
-71 15z m53 -26 c2 -13 -3 -25 -13 -28 -23 -9 -38 10 -30 36 9 27 39 22 43 -8z"/>
<path d="M1980 5610 c-13 -8 -12 -10 3 -10 9 0 17 5 17 10 0 12 -1 12 -20 0z"/>
<path d="M2028 5603 c7 -3 16 -2 19 1 4 3 -2 6 -13 5 -11 0 -14 -3 -6 -6z"/>
<path d="M1148 5333 c7 -3 16 -2 19 1 4 3 -2 6 -13 5 -11 0 -14 -3 -6 -6z"/>
<path d="M251 4905 c-27 -31 -60 -70 -71 -88 -16 -25 -14 -23 12 8 18 21 53
61 77 87 24 26 41 48 38 48 -3 0 -28 -25 -56 -55z"/>
<path d="M8900 890 c-14 -5 -76 -23 -138 -41 -62 -17 -110 -34 -107 -37 3 -3
22 0 42 6 21 7 87 26 147 42 60 16 112 32 114 35 8 8 -30 4 -58 -5z"/>
<path d="M6056 724 c-3 -9 -4 -20 -1 -25 7 -11 90 -68 130 -90 17 -8 90 -52
163 -97 74 -45 136 -82 138 -82 13 0 113 -74 109 -80 -3 -4 3 -7 13 -6 9 0 16
-4 15 -10 -1 -7 6 -10 17 -7 15 4 18 1 13 -16 -4 -16 -2 -20 10 -15 9 3 23 2
32 -4 15 -8 15 -10 1 -24 -14 -14 -14 -17 0 -22 8 -3 12 -2 9 4 -3 6 -2 10 4
10 5 0 12 -4 16 -10 3 -5 12 -7 20 -3 8 3 15 0 15 -6 0 -6 5 -11 11 -11 5 0 7
5 3 12 -5 7 -3 8 5 4 7 -5 10 -14 7 -22 -6 -17 51 -48 58 -30 3 7 8 6 15 -4 5
-8 8 -17 5 -21 -2 -4 5 -9 16 -12 10 -3 21 0 24 7 2 6 5 3 5 -8 1 -12 6 -16
16 -13 18 7 30 -9 13 -17 -7 -3 0 -2 16 1 25 5 28 3 23 -11 -5 -13 -3 -16 11
-12 19 6 41 -9 58 -39 6 -10 16 -21 24 -23 7 -3 10 0 6 7 -4 6 -3 11 3 11 5 0
13 -5 16 -10 3 -6 1 -10 -4 -10 -21 0 -11 -19 12 -23 20 -4 20 -4 -3 -6 -15 0
-31 4 -37 10 -7 7 -12 6 -16 -5 -6 -14 13 -16 163 -16 94 0 170 2 170 4 0 4
-305 176 -510 286 -74 41 -259 147 -410 238 -244 146 -366 212 -390 212 -4 0
-11 -7 -14 -16z"/>
<path d="M8720 175 c-169 -24 -771 -120 -960 -154 l-105 -19 653 -1 652 -1 0
100 0 100 -37 -1 c-21 0 -112 -11 -203 -24z"/>
<path d="M160 80 l-155 -5 -3 -37 -3 -38 573 1 573 1 -90 23 c-142 38 -199 45
-259 33 -49 -9 -55 -9 -75 11 -20 20 -29 21 -213 19 -106 -1 -263 -5 -348 -8z"/>
</g>
</svg>
